<svg id="Layer_1" xmlns="http://www.w3.org/2000/svg" viewBox="0 0 23 23"><style>.st0{fill:#fff}.st1{fill:#6d6d6d}.st2{fill:none;stroke:#6d6d6d;stroke-width:1.4;stroke-miterlimit:10}</style><path class="st0" d="M11.5 22.3C5.5 22.3.7 17.5.7 11.5S5.5.7 11.5.7s10.8 4.8 10.8 10.8-4.8 10.8-10.8 10.8z"/><path class="st1" d="M11.5 1.4c5.6 0 10.1 4.5 10.1 10.1s-4.5 10.1-10.1 10.1S1.4 17.1 1.4 11.5 5.9 1.4 11.5 1.4m0-1.4C5.1 0 0 5.1 0 11.5S5.1 23 11.5 23 23 17.9 23 11.5 17.9 0 11.5 0z"/><path class="st2" d="M6.9 6.8l9.4 9.4m-.1-9.4l-9.4 9.4"/></svg>