<svg width="31" height="31" viewBox="0 0 31 31" xmlns="http://www.w3.org/2000/svg"><title>C8768248-9754-44CE-8F5D-5DB09B6FDD49</title><g fill="none" fill-rule="evenodd"><rect fill="#D8D8D8" x=".323" y=".032" width="30.058" height="30.058" rx="3"/><path d="M15.607 23.443h-7.76a.894.894 0 0 1-.895-.895V8.134c0-.494.4-.894.894-.894h14.415c.494 0 .894.4.894.894v14.414c0 .494-.4.895-.894.895h-4.13v-6.275h2.107l.315-2.445h-2.421V13.16c0-.708.196-1.19 1.212-1.19h1.295V9.782a17.31 17.31 0 0 0-1.887-.096c-1.867 0-3.145 1.14-3.145 3.232v1.804h-2.112v2.445h2.112v6.275z" fill="#FFF"/></g></svg>