<svg width="24" height="24" viewBox="0 0 24 24" xmlns="http://www.w3.org/2000/svg"><title>B066BCB2-6B81-49E8-B07B-A70400A44FC5</title><path d="M12.593 23.47H1.358c-.715 0-1.295-.58-1.295-1.294V1.306C.063.593.643.013 1.358.013h20.87c.714 0 1.294.58 1.294 1.295v20.869c0 .715-.58 1.294-1.295 1.294H16.25v-9.084h3.05l.456-3.54H16.25v-2.26c0-1.026.285-1.724 1.755-1.724h1.875V3.694a25.062 25.062 0 0 0-2.732-.14c-2.703 0-4.554 1.65-4.554 4.68v2.61H9.536v3.541h3.057v9.084z" fill="#FF4040" fill-rule="evenodd"/></svg>