<svg width="25" height="24" viewBox="0 0 25 24" xmlns="http://www.w3.org/2000/svg"><title>DD553F91-1DF7-47AF-9258-29FEACFB6B21</title><path d="M13.363 23.906h-11.4A1.314 1.314 0 0 1 .65 22.592V1.418C.65.693 1.238.105 1.964.105h21.174c.726 0 1.314.588 1.314 1.313v21.174c0 .726-.589 1.314-1.314 1.314h-6.065V14.69h3.094l.463-3.592h-3.557V8.804c0-1.04.289-1.75 1.78-1.75h1.902V3.841c-.329-.044-1.458-.141-2.772-.141-2.742 0-4.62 1.674-4.62 4.748v2.649h-3.101v3.592h3.101v9.217z" fill="#6D6D6D" fill-rule="evenodd"/></svg>