<svg width="506" height="501" viewBox="0 0 506 501" xmlns="http://www.w3.org/2000/svg" xmlns:xlink="http://www.w3.org/1999/xlink"><title>9EE310FA-4B71-4181-9BB8-04FC4096E7B6</title><defs><rect id="b" x="9.394" y="13.654" width="357.214" height="222.559" rx="4"/><filter x="-50%" y="-50%" width="200%" height="200%" filterUnits="objectBoundingBox" id="a"><feOffset dy="2" in="SourceAlpha" result="shadowOffsetOuter1"/><feGaussianBlur stdDeviation="9" in="shadowOffsetOuter1" result="shadowBlurOuter1"/><feColorMatrix values="0 0 0 0 0.716384991 0 0 0 0 0.716384991 0 0 0 0 0.716384991 0 0 0 0.5 0" in="shadowBlurOuter1"/></filter><rect id="d" x="9.394" y="13.654" width="357.214" height="222.559" rx="4"/><filter x="-50%" y="-50%" width="200%" height="200%" filterUnits="objectBoundingBox" id="c"><feOffset dy="2" in="SourceAlpha" result="shadowOffsetOuter1"/><feGaussianBlur stdDeviation="9" in="shadowOffsetOuter1" result="shadowBlurOuter1"/><feColorMatrix values="0 0 0 0 0.716384991 0 0 0 0 0.716384991 0 0 0 0 0.716384991 0 0 0 0.5 0" in="shadowBlurOuter1"/></filter><rect id="f" x="9.394" y="13.654" width="357.214" height="222.559" rx="4"/><filter x="-50%" y="-50%" width="200%" height="200%" filterUnits="objectBoundingBox" id="e"><feOffset dy="2" in="SourceAlpha" result="shadowOffsetOuter1"/><feGaussianBlur stdDeviation="9" in="shadowOffsetOuter1" result="shadowBlurOuter1"/><feColorMatrix values="0 0 0 0 0.716384991 0 0 0 0 0.716384991 0 0 0 0 0.716384991 0 0 0 0.5 0" in="shadowBlurOuter1"/></filter><rect id="h" x="9.394" y="13.654" width="357.214" height="222.559" rx="4"/><filter x="-50%" y="-50%" width="200%" height="200%" filterUnits="objectBoundingBox" id="g"><feOffset dy="2" in="SourceAlpha" result="shadowOffsetOuter1"/><feGaussianBlur stdDeviation="9" in="shadowOffsetOuter1" result="shadowBlurOuter1"/><feColorMatrix values="0 0 0 0 0.716384991 0 0 0 0 0.716384991 0 0 0 0 0.716384991 0 0 0 0.5 0" in="shadowBlurOuter1"/></filter><rect id="j" x="9.394" y="13.654" width="357.214" height="222.559" rx="4"/><filter x="-50%" y="-50%" width="200%" height="200%" filterUnits="objectBoundingBox" id="i"><feOffset dy="2" in="SourceAlpha" result="shadowOffsetOuter1"/><feGaussianBlur stdDeviation="9" in="shadowOffsetOuter1" result="shadowBlurOuter1"/><feColorMatrix values="0 0 0 0 0.716384991 0 0 0 0 0.716384991 0 0 0 0 0.716384991 0 0 0 0.5 0" in="shadowBlurOuter1"/></filter></defs><g fill="none" fill-rule="evenodd"><g transform="rotate(17 -938.694 397.902)"><use fill="#000" filter="url(#a)" xlink:href="#b"/><use fill="#FFF" xlink:href="#b"/><rect fill="#FFF" x=".708" y=".755" width="374.585" height="240.948" rx="4"/></g><path d="M138.896 466.179l8.66 2.647-.213.694c-.481 1.574-1.092 2.91-1.833 4.01-.707 1.01-1.638 1.874-2.796 2.59-2.615 1.594-5.425 1.933-8.43 1.014-2.932-.896-5.119-2.723-6.562-5.48-1.44-2.766-1.706-5.637-.796-8.614.93-3.041 2.783-5.295 5.557-6.763 2.776-1.476 5.688-1.748 8.739-.815 1.638.501 3.063 1.302 4.28 2.408 1.154 1.084 2.157 2.578 3.01 4.48l-2.915 1.47c-1.017-2.815-2.763-4.599-5.235-5.355-2.216-.677-4.31-.482-6.278.588-1.962 1.042-3.29 2.696-3.981 4.958-.714 2.335-.465 4.514.748 6.538 1.135 1.88 2.618 3.1 4.447 3.66 1.556.475 3.113.378 4.674-.293 1.566-.68 2.643-1.735 3.24-3.165l-5.225-1.598.91-2.974m28.761 20.728l3.162.967 6.408-20.96-3.162-.967zm27.658 8.456l6.844-22.385 10.395 20.664 4.454-14.566 3.162.967-6.798 22.236-10.408-20.624-4.486 14.675-3.163-.967m47.464 11.261l10.06 3.075-.91 2.973-15.258-4.665 15.787-14.842-8.606-2.63.909-2.974 13.806 4.222-15.788 14.84m45.789 8.434l-.93-8.077-5.434 6.13 6.364 1.947zm.38 3.367l-8.971-2.743-3.891 4.376-3.409-1.042 17.182-19.105 3.194 25.335-3.46-1.058-.644-5.763zm-71.846-71.32l13.296 4.065 1.53-5.004-13.296-4.065-1.53 5.004zm4.104-13.424a43.085 43.085 0 0 0 6.479 2.583 43.09 43.09 0 0 0 6.817 1.482l-1.623 5.308-13.296-4.065 1.623-5.308zm13.833 13.436l2.13.651.951-3.111-2.13-.651 1.815-5.934c10.085.573 16.987-2.672 17.36-2.852l-1.42-2.93c-.08.04-6.086 2.872-14.957 2.565l2.002-6.546-3.112-.951-2.21 7.229a39.295 39.295 0 0 1-6.832-1.434 39.156 39.156 0 0 1-6.463-2.634l2.209-7.226-3.112-.952-1.999 6.539c-7.5-4.702-10.927-10.407-10.97-10.485l-2.813 1.637c.207.358 4.116 6.908 12.797 12.073l-1.814 5.933-2.13-.651-.952 3.11 2.131.652-1.53 5.005-6.3-1.926-.952 3.111 6.3 1.926-1.588 5.196 3.112.952 1.588-5.196 13.297 4.065-1.589 5.196 3.111.95 1.589-5.195 6.3 1.926.952-3.111-6.3-1.926 1.53-5.005z" fill="#EFEFEF"/><g transform="rotate(25 -424.588 355.736)"><use fill="#000" filter="url(#c)" xlink:href="#d"/><use fill="#FFF" xlink:href="#d"/><rect fill="#FFF" x=".708" y=".755" width="374.585" height="240.948" rx="4"/></g><path d="M149.255 394.265l8.206 3.827-.307.657c-.696 1.492-1.486 2.73-2.374 3.716-.84.902-1.882 1.628-3.129 2.176-2.811 1.214-5.64 1.158-8.488-.17-2.779-1.295-4.69-3.409-5.736-6.34-1.042-2.939-.905-5.819.41-8.64 1.345-2.883 3.493-4.857 6.444-5.924 2.955-1.076 5.877-.94 8.768.409 1.552.724 2.852 1.716 3.904 2.98.991 1.234 1.776 2.853 2.357 4.856l-3.092 1.05c-.616-2.93-2.096-4.94-4.439-6.032-2.1-.979-4.2-1.077-6.299-.291-2.087.758-3.632 2.212-4.632 4.355-1.032 2.213-1.088 4.405-.169 6.579.863 2.02 2.161 3.434 3.895 4.243 1.474.687 3.03.808 4.669.36 1.645-.455 2.859-1.35 3.65-2.683l-4.953-2.31 1.315-2.818m25.596 24.529l2.997 1.398 9.263-19.864-2.997-1.398zm26.212 12.223l9.893-21.214 7.418 21.91 6.438-13.805 2.997 1.398-9.827 21.072-7.436-21.87-6.485 13.907-2.998-1.398m45.435 17.757l9.534 4.445-1.314 2.817-14.46-6.743 17.698-12.5-8.156-3.803 1.314-2.817 13.085 6.101-17.7 12.5m44.169 14.723l.204-8.127-6.236 5.315 6.032 2.812zm-.092 3.388l-8.502-3.965-4.463 3.792-3.23-1.506 19.674-16.528-.363 25.532-3.279-1.529.163-5.796zm-61.222-80.625l12.601 5.876 2.212-4.743-12.601-5.876-2.212 4.743zm5.933-12.722a43.085 43.085 0 0 0 6.056 3.46 43.09 43.09 0 0 0 6.545 2.416l-2.346 5.03-12.601-5.876 2.346-5.03zm11.829 15.23l2.018.941 1.375-2.948-2.018-.942 2.622-5.623c9.908 1.971 17.194-.282 17.589-.408l-.998-3.099c-.085.029-6.427 1.997-15.17.458l2.894-6.204-2.949-1.375-3.195 6.852a39.295 39.295 0 0 1-6.566-2.371 39.156 39.156 0 0 1-6.034-3.508l3.194-6.849-2.949-1.375-2.89 6.197c-6.772-5.7-9.372-11.827-9.405-11.91l-3.013 1.23c.156.383 3.115 7.413 10.993 13.736l-2.622 5.623-2.02-.942-1.375 2.95 2.02.941-2.211 4.743-5.972-2.784-1.375 2.948 5.972 2.785-2.297 4.924 2.949 1.375 2.296-4.924 12.601 5.876-2.296 4.924 2.949 1.375 2.296-4.924 5.971 2.784 1.375-2.949-5.97-2.784 2.21-4.743z" fill="#EFEFEF"/><g transform="rotate(37 -25.42 382.853)"><use fill="#000" filter="url(#e)" xlink:href="#f"/><use fill="#FFF" xlink:href="#f"/><rect fill="#FFF" x=".708" y=".755" width="374.585" height="240.948" rx="4"/></g><path d="M225.402 277.967l7.231 5.45-.437.579c-.99 1.315-2.021 2.36-3.094 3.141-1.01.708-2.18 1.201-3.513 1.478-3.003.603-5.759-.04-8.268-1.93-2.449-1.846-3.879-4.31-4.292-7.395-.408-3.091.324-5.88 2.198-8.367 1.914-2.54 4.426-4.024 7.534-4.454 3.115-.438 5.944.303 8.492 2.223 1.368 1.03 2.433 2.272 3.198 3.726.714 1.414 1.145 3.16 1.297 5.24l-3.243.384c.007-2.993-1.024-5.267-3.088-6.822-1.85-1.394-3.885-1.927-6.1-1.595-2.2.308-4.013 1.408-5.437 3.297-1.47 1.95-1.98 4.083-1.533 6.4.424 2.155 1.4 3.809 2.927 4.96 1.3.979 2.796 1.42 4.492 1.324 1.704-.104 3.078-.727 4.128-1.866l-4.364-3.289 1.872-2.484m19.938 29.315l2.64 1.99 13.19-17.503-2.64-1.99zm23.097 17.406l14.087-18.694 2.702 22.973 9.166-12.164 2.641 1.99-13.993 18.57-2.726-22.94-9.235 12.255-2.642-1.99m40.751 26.815l8.4 6.33-1.87 2.483-12.743-9.602 19.91-8.547-7.186-5.416 1.87-2.483 11.53 8.689-19.911 8.546m40.142 23.585l1.89-7.908-7.204 3.903 5.315 4.005zm-.793 3.294l-7.492-5.646-5.154 2.782-2.846-2.145 22.68-12.076-5.664 24.899-2.889-2.177 1.365-5.637zm-43.122-91.592l11.105 8.368 3.15-4.179-11.105-8.368-3.15 4.18zm8.448-11.21a43.085 43.085 0 0 0 5.205 4.643 43.09 43.09 0 0 0 5.9 3.725l-3.34 4.433-11.105-8.368 3.34-4.433zm8.404 17.357l1.78 1.34 1.957-2.598-1.779-1.34 3.734-4.955c9.282 3.987 16.877 3.299 17.29 3.257l-.332-3.238c-.09.01-6.702.616-14.933-2.706l4.12-5.467-2.599-1.958-4.55 6.037a39.295 39.295 0 0 1-5.929-3.684 39.156 39.156 0 0 1-5.172-4.686l4.547-6.035-2.598-1.958-4.115 5.46c-5.44-6.983-6.709-13.516-6.723-13.605l-3.203.577c.072.407 1.505 7.899 7.897 15.722l-3.734 4.955-1.78-1.341-1.958 2.598 1.78 1.341-3.15 4.18-5.262-3.965-1.958 2.598 5.262 3.965-3.27 4.34 2.599 1.958 3.27-4.34 11.104 8.368-3.27 4.34 2.598 1.957 3.27-4.34 5.262 3.966 1.958-2.599-5.262-3.965 3.15-4.179z" fill="#EFEFEF"/><g transform="rotate(53 188.698 396.701)"><use fill="#000" filter="url(#g)" xlink:href="#h"/><use fill="#FFF" xlink:href="#h"/><rect fill="#FFF" x=".708" y=".755" width="374.585" height="240.948" rx="4"/></g><path d="M340.914 185.678l5.449 7.23-.58.438c-1.314.99-2.593 1.712-3.84 2.166-1.166.402-2.426.554-3.784.452-3.053-.247-5.525-1.625-7.415-4.134-1.846-2.449-2.541-5.213-2.089-8.291.46-3.084 1.933-5.563 4.42-7.437 2.54-1.914 5.363-2.648 8.47-2.205 3.114.438 5.63 1.93 7.55 4.477 1.03 1.368 1.712 2.855 2.047 4.464.296 1.555.23 3.353-.198 5.395l-3.223-.525c.832-2.876.468-5.345-1.088-7.41-1.394-1.85-3.203-2.923-5.424-3.214-2.2-.31-4.246.248-6.135 1.671-1.95 1.47-3.03 3.379-3.238 5.73-.186 2.187.296 4.046 1.447 5.574.98 1.3 2.296 2.136 3.953 2.51 1.666.37 3.159.15 4.482-.656l-3.288-4.364 2.484-1.871m11.085 33.674l1.99 2.642 17.504-13.19-1.99-2.642zm17.405 23.098l18.694-14.086-3.735 22.827 12.164-9.166 1.99 2.641-18.569 13.993 3.702-22.802-12.255 9.235-1.99-2.641m31.78 37.009l6.33 8.4-2.483 1.87-9.602-12.742 21.496-2.728-5.416-7.187 2.483-1.87 8.688 11.53-21.496 2.726m32.087 33.737l3.995-7.08-8 1.765 4.005 5.315zm-1.671 2.948l-5.646-7.493-5.72 1.253-2.146-2.846 25.13-5.357-12.307 22.374-2.177-2.89 2.866-5.041zm-16.205-99.93l8.367 11.104 4.18-3.15-8.368-11.103-4.18 3.15zm11.21-8.448a43.085 43.085 0 0 0 3.724 5.898 43.09 43.09 0 0 0 4.644 5.207l-4.433 3.34-8.367-11.104 4.432-3.34zm3.295 19.001l1.34 1.779 2.599-1.958-1.34-1.779 4.954-3.734c7.823 6.392 15.314 7.824 15.722 7.897l.574-3.204c-.089-.015-6.613-1.255-13.609-6.717l5.467-4.12-1.958-2.598-6.037 4.55a39.295 39.295 0 0 1-4.685-5.177 39.156 39.156 0 0 1-3.68-5.93l6.034-4.547-1.958-2.599-5.46 4.115c-3.304-8.212-2.723-14.842-2.713-14.931l-3.238-.329c-.042.411-.73 8.008 3.258 17.29l-4.955 3.733-1.342-1.78-2.598 1.959 1.341 1.78-4.18 3.149-3.964-5.262-2.599 1.958 3.965 5.262-4.339 3.27 1.958 2.598 4.34-3.27 8.367 11.104-4.34 3.27 1.959 2.599 4.339-3.27 3.965 5.261 2.598-1.958-3.965-5.261 4.18-3.15z" fill="#EFEFEF"/><g transform="rotate(84 315.352 345.767)"><use fill="#000" filter="url(#i)" xlink:href="#j"/><use fill="#FFF" xlink:href="#j"/><rect fill="#FFF" x=".708" y=".755" width="374.585" height="240.948" rx="4"/></g><path d="M490.617 122.645l.946 9.005-.721.076c-1.637.172-3.106.132-4.408-.12-1.206-.256-2.365-.776-3.476-1.562-2.49-1.785-3.899-4.239-4.227-7.363-.32-3.05.506-5.777 2.48-8.182 1.983-2.407 4.522-3.773 7.618-4.099 3.163-.332 5.962.492 8.396 2.473 2.444 1.979 3.832 4.553 4.166 7.726.179 1.703-.002 3.329-.544 4.88-.547 1.486-1.53 2.993-2.948 4.522l-2.492-2.11c2.193-2.036 3.153-4.34 2.883-6.91-.242-2.305-1.24-4.156-2.994-5.55-1.726-1.399-3.767-1.974-6.12-1.727-2.428.255-4.336 1.336-5.725 3.243-1.287 1.78-1.831 3.621-1.631 5.524.17 1.618.868 3.013 2.095 4.188 1.238 1.175 2.63 1.755 4.18 1.746l-.571-5.434 3.093-.326m-7.842 34.575l.345 3.289 21.798-2.291-.346-3.29zm3.023 28.763l23.279-2.447-14.96 17.644 15.149-1.593.345 3.29-23.123 2.43 14.917-17.639-15.261 1.604-.346-3.289m8.18 48.091l1.1 10.46-3.092.326-1.668-15.868 19.83 8.733-.94-8.95 3.091-.325 1.51 14.358-19.83-8.734m10.128 45.444l7.071-4.012-7.767-2.607.696 6.619zm-2.951 1.666l-.98-9.33-5.55-1.872-.372-3.545 24.3 8.351-22.073 12.84-.378-3.599 5.053-2.845z" fill="#EFEFEF"/></g></svg>