<svg width="26" height="26" viewBox="0 0 26 26" xmlns="http://www.w3.org/2000/svg"><title>EF47147B-DA3F-439B-B2ED-A8FDBCA1B0EB</title><path d="M13.106 2.56c3.316 0 3.709.012 5.018.072 1.211.055 1.869.258 2.306.428.58.225.994.494 1.428.929.435.434.704.848.93 1.428.17.437.372 1.095.427 2.306.06 1.31.072 1.702.072 5.018s-.012 3.71-.072 5.019c-.055 1.21-.258 1.868-.428 2.306a3.84 3.84 0 0 1-.929 1.428 3.848 3.848 0 0 1-1.428.929c-.437.17-1.095.372-2.306.427-1.309.06-1.702.073-5.018.073s-3.71-.013-5.018-.073c-1.211-.055-1.869-.257-2.306-.427a3.847 3.847 0 0 1-1.428-.93 3.848 3.848 0 0 1-.93-1.427c-.17-.438-.372-1.095-.427-2.306-.06-1.31-.073-1.703-.073-5.019s.013-3.709.073-5.018c.055-1.211.257-1.869.428-2.306.225-.58.494-.994.929-1.428a3.848 3.848 0 0 1 1.428-.93c.437-.17 1.095-.372 2.306-.427 1.31-.06 1.702-.072 5.018-.072m0-2.238c3.373 0 3.796.014 5.12.075 1.322.06 2.225.27 3.015.577.817.317 1.51.742 2.2 1.433a6.088 6.088 0 0 1 1.432 2.2c.307.79.517 1.692.577 3.014.06 1.324.075 1.747.075 5.12s-.014 3.796-.075 5.12c-.06 1.323-.27 2.225-.577 3.015a6.088 6.088 0 0 1-1.432 2.2 6.088 6.088 0 0 1-2.2 1.432c-.79.308-1.693.517-3.015.578-1.324.06-1.747.074-5.12.074s-3.796-.014-5.12-.074c-1.322-.06-2.225-.27-3.015-.578a6.088 6.088 0 0 1-2.2-1.432 6.088 6.088 0 0 1-1.432-2.2c-.307-.79-.517-1.692-.578-3.014-.06-1.325-.074-1.748-.074-5.12C.687 9.367.7 8.944.76 7.62c.06-1.322.27-2.225.578-3.015a6.088 6.088 0 0 1 1.432-2.2A6.088 6.088 0 0 1 4.97.973C5.76.667 6.664.457 7.986.397 9.31.337 9.733.322 13.106.322zm0 6.042a6.377 6.377 0 1 0 0 12.755 6.377 6.377 0 0 0 0-12.755zm0 10.517a4.14 4.14 0 1 1 0-8.28 4.14 4.14 0 0 1 0 8.28zm8.12-10.77a1.49 1.49 0 1 0-2.98 0 1.49 1.49 0 0 0 2.98 0z" fill="#FF4040" fill-rule="evenodd"/></svg>