<svg width="31" height="31" viewBox="0 0 31 31" xmlns="http://www.w3.org/2000/svg"><title>84AF9CE0-170A-494E-93BF-F456353AD07C</title><g fill="none" fill-rule="evenodd"><rect fill="#D8D8D8" x=".611" y=".032" width="30.058" height="30.058" rx="3"/><path d="M15.341 8.309c2.29 0 2.562.008 3.466.05.837.038 1.291.178 1.593.295.4.156.687.342.987.642.3.3.486.586.641.986.118.302.258.757.296 1.593.041.904.05 1.176.05 3.466s-.009 2.562-.05 3.467c-.038.836-.178 1.29-.296 1.592-.155.4-.341.687-.641.987-.3.3-.586.486-.987.641-.302.118-.756.258-1.593.296-.904.041-1.175.05-3.466.05-2.29 0-2.562-.009-3.466-.05-.837-.038-1.29-.178-1.593-.296a2.657 2.657 0 0 1-.986-.641c-.3-.3-.486-.586-.642-.987-.117-.302-.257-.756-.295-1.592-.042-.905-.05-1.176-.05-3.467 0-2.29.008-2.562.05-3.466.038-.836.178-1.29.295-1.593.156-.4.341-.686.642-.986.3-.3.586-.486.986-.642.302-.117.756-.257 1.593-.295.904-.042 1.176-.05 3.466-.05m0-1.546c2.33 0 2.622.01 3.537.052.913.041 1.537.186 2.082.398.564.22 1.043.513 1.52.99.476.477.77.955.989 1.52.212.545.357 1.168.399 2.081.042.915.051 1.207.051 3.537s-.01 2.622-.051 3.537c-.042.913-.187 1.537-.399 2.082a4.205 4.205 0 0 1-.99 1.52c-.476.477-.955.77-1.519.99-.545.211-1.169.356-2.082.398-.915.042-1.207.051-3.537.051s-2.622-.01-3.537-.051c-.913-.042-1.536-.187-2.082-.399a4.205 4.205 0 0 1-1.52-.99 4.205 4.205 0 0 1-.989-1.519c-.212-.545-.357-1.169-.398-2.082-.042-.915-.052-1.207-.052-3.537s.01-2.622.052-3.537c.041-.913.186-1.536.398-2.082.22-.564.513-1.042.99-1.52.477-.476.955-.77 1.52-.989.545-.212 1.168-.357 2.081-.398.915-.042 1.207-.052 3.537-.052zm0 4.173a4.405 4.405 0 1 0 0 8.81 4.405 4.405 0 0 0 0-8.81zm0 7.265a2.86 2.86 0 1 1 0-5.72 2.86 2.86 0 0 1 0 5.72zm5.609-7.439a1.03 1.03 0 1 0-2.06 0 1.03 1.03 0 0 0 2.06 0z" fill="#FFF"/></g></svg>