<svg width="26" height="26" viewBox="0 0 26 26" xmlns="http://www.w3.org/2000/svg"><title>55030B59-BF07-429C-A446-2DC15655477A</title><path d="M13.306 2.675c3.364 0 3.763.013 5.092.074 1.228.056 1.895.261 2.34.433a3.905 3.905 0 0 1 1.448.943c.441.441.714.86.943 1.449.172.444.378 1.111.434 2.34.06 1.328.073 1.727.073 5.092 0 3.364-.013 3.763-.073 5.091-.056 1.229-.262 1.896-.434 2.34a3.904 3.904 0 0 1-.943 1.449c-.44.44-.86.714-1.449.943-.444.172-1.11.377-2.34.433-1.328.061-1.726.074-5.091.074s-3.763-.013-5.092-.074c-1.229-.056-1.896-.26-2.34-.433a3.904 3.904 0 0 1-1.449-.943 3.901 3.901 0 0 1-.942-1.449c-.173-.444-.378-1.111-.434-2.34-.06-1.328-.074-1.727-.074-5.091 0-3.365.013-3.764.074-5.092.056-1.229.261-1.896.434-2.34a3.904 3.904 0 0 1 .942-1.449 3.92 3.92 0 0 1 1.45-.943c.443-.172 1.11-.377 2.339-.433 1.329-.061 1.727-.074 5.092-.074m0-2.27c3.422 0 3.851.014 5.195.076 1.341.06 2.257.274 3.059.585a6.177 6.177 0 0 1 2.232 1.454c.7.7 1.131 1.403 1.453 2.232.312.801.525 1.717.586 3.058.061 1.344.076 1.773.076 5.196 0 3.422-.015 3.85-.076 5.195-.061 1.341-.274 2.257-.586 3.059a6.177 6.177 0 0 1-1.453 2.231c-.7.7-1.404 1.132-2.232 1.454-.802.311-1.718.524-3.059.585-1.344.062-1.773.076-5.195.076-3.422 0-3.851-.014-5.195-.076-1.342-.06-2.258-.274-3.06-.585A6.177 6.177 0 0 1 2.82 23.49a6.177 6.177 0 0 1-1.453-2.231c-.312-.802-.525-1.718-.586-3.06-.061-1.343-.076-1.772-.076-5.194 0-3.423.015-3.852.076-5.196.061-1.341.274-2.257.586-3.058A6.177 6.177 0 0 1 2.82 2.52c.7-.7 1.403-1.132 2.232-1.454C5.853.755 6.769.542 8.11.481 9.455.419 9.884.405 13.306.405zm0 6.13a6.47 6.47 0 1 0 0 12.941 6.47 6.47 0 0 0 0-12.941zm0 10.67a4.2 4.2 0 1 1 0-8.4 4.2 4.2 0 0 1 0 8.4zM21.544 6.28a1.512 1.512 0 1 0-3.024 0 1.512 1.512 0 0 0 3.024 0z" fill="#6D6D6D" fill-rule="evenodd"/></svg>