<svg id="Layer_1" data-name="Layer 1" xmlns="http://www.w3.org/2000/svg" viewBox="0 0 145 49.5"><defs><style>.cls-1{fill:#fcfcfc}.cls-2{fill:#3e403f}.cls-3{fill:#a5cf34}</style></defs><title>logo</title><path class="cls-1" d="M0 0h145v49.5H0z"/><path class="cls-2" d="M3 46.4h139V3H3zM0 0h145v49.5H0z"/><path class="cls-3" d="M31.7 22.4a9.94 9.94 0 0 0-.8-3.4 7.12 7.12 0 0 0-1.8-2.7 8 8 0 0 0-2.7-1.8 7.82 7.82 0 0 0-3.5-.7 7.82 7.82 0 0 0-3.5.7 8.3 8.3 0 0 0-2.7 1.9 8 8 0 0 0-1.8 2.7 13.23 13.23 0 0 0-.8 3.3zm4.8 8.5c-.7 3.4-2.1 6-4.4 7.7a14.17 14.17 0 0 1-8.6 2.6 15.07 15.07 0 0 1-6.3-1.2 12.53 12.53 0 0 1-4.5-3.3 13.82 13.82 0 0 1-2.7-5.1 22 22 0 0 1-1-6.4 19.11 19.11 0 0 1 1.1-6.4 14.83 14.83 0 0 1 3-5 14.54 14.54 0 0 1 4.5-3.3 14 14 0 0 1 5.8-1.2 12.93 12.93 0 0 1 6.8 1.7 12.64 12.64 0 0 1 4.3 4.3 16.49 16.49 0 0 1 2.2 5.7 23.55 23.55 0 0 1 .5 5.8H14.1a12 12 0 0 0 .5 3.8 7.63 7.63 0 0 0 1.7 3.2 8.35 8.35 0 0 0 3 2.2 11.37 11.37 0 0 0 4.3.8 8.44 8.44 0 0 0 5.2-1.5 6.93 6.93 0 0 0 2.7-4.5c0 .1 5 .1 5 .1zm28.1-11h5.2a13 13 0 0 0-1.4-4.7 10.18 10.18 0 0 0-2.9-3.3 11.37 11.37 0 0 0-4-1.9 18.79 18.79 0 0 0-4.9-.6 13.91 13.91 0 0 0-6.3 1.3 11.94 11.94 0 0 0-4.5 3.5 15.14 15.14 0 0 0-2.7 5.2 22 22 0 0 0-.9 6.4 20.85 20.85 0 0 0 .9 6.3 13.74 13.74 0 0 0 2.7 4.9 12.3 12.3 0 0 0 4.5 3.2 16.74 16.74 0 0 0 6.2 1.1c3.9 0 7-1 9.2-3.1a13.58 13.58 0 0 0 4.2-8.7h-5.1a8.66 8.66 0 0 1-2.6 5.5 8.12 8.12 0 0 1-5.8 1.9 8.85 8.85 0 0 1-4.1-.9 8.42 8.42 0 0 1-2.8-2.5 11.91 11.91 0 0 1-1.6-3.6 19.15 19.15 0 0 1-.5-4.1 23 23 0 0 1 .5-4.5 9.92 9.92 0 0 1 1.6-3.8 8.38 8.38 0 0 1 2.9-2.7 8.82 8.82 0 0 1 4.5-1 7.6 7.6 0 0 1 5.1 1.6 7.08 7.08 0 0 1 2.6 4.5zm16.3 5.5a14.87 14.87 0 0 0 .7 4.9 12.45 12.45 0 0 0 2 3.6 9.32 9.32 0 0 0 3 2.2 9 9 0 0 0 7.4 0 8.35 8.35 0 0 0 3-2.2 10.49 10.49 0 0 0 2-3.6 14.87 14.87 0 0 0 .7-4.9 14.87 14.87 0 0 0-.7-4.9 12.45 12.45 0 0 0-2-3.6 8.05 8.05 0 0 0-3-2.2 9 9 0 0 0-7.4 0 8.35 8.35 0 0 0-3 2.2 10.49 10.49 0 0 0-2 3.6 17.51 17.51 0 0 0-.7 4.9zm-5.3 0a21.81 21.81 0 0 1 .9-6.3 15.84 15.84 0 0 1 2.8-5.1 13.54 13.54 0 0 1 4.7-3.4 17.67 17.67 0 0 1 12.8 0 13.15 13.15 0 0 1 4.6 3.4 12.67 12.67 0 0 1 2.8 5.1 20.85 20.85 0 0 1 .9 6.3 21.32 21.32 0 0 1-.9 6.3 14.4 14.4 0 0 1-2.8 5 14.13 14.13 0 0 1-4.6 3.4 15.89 15.89 0 0 1-6.4 1.2 16.23 16.23 0 0 1-6.4-1.2 13.2 13.2 0 0 1-4.7-3.4 13 13 0 0 1-2.8-5 21.81 21.81 0 0 1-.9-6.3z"/><path class="cls-2" d="M110.3 35.9v3.8H136v-4.4h-19.5l18.6-22.7V9.2h-23.7v4.4h17.2z"/></svg>