<svg width="168" height="75" viewBox="0 0 168 75" xmlns="http://www.w3.org/2000/svg"><title>3EE51176-F18B-4F18-9485-D16BBDAD48A2</title><g fill="none" fill-rule="evenodd"><path d="M12.18 62.299h8.526v.683c0 1.55-.182 2.921-.547 4.116-.358 1.104-.959 2.138-1.804 3.102-1.916 2.155-4.353 3.233-7.311 3.233-2.888 0-5.36-1.043-7.419-3.128C1.567 68.211.537 65.7.537 62.768c0-2.995 1.048-5.535 3.142-7.62 2.094-2.093 4.641-3.14 7.645-3.14 1.613 0 3.117.33 4.517.99 1.337.659 2.652 1.728 3.945 3.206l-2.222 2.126c-1.69-2.255-3.754-3.38-6.188-3.38-2.181 0-4.013.752-5.491 2.257-1.48 1.478-2.22 3.333-2.22 5.56 0 2.3.824 4.193 2.474 5.682 1.54 1.38 3.21 2.07 5.012 2.07 1.532 0 2.907-.515 4.128-1.55 1.222-1.042 1.903-2.29 2.047-3.741H12.18v-2.93m31.605 10.748H46.9V52.408h-3.114zm27.234 0v-22.04l15.05 15.744V52.408h3.113v21.894l-15.05-15.705v14.449H71.02m45.838-2.927h9.905v2.927h-15.024l10.13-17.71h-8.474v-2.928h13.594l-10.13 17.71m43.552-5.011l-3.06-7.017-3.206 7.017h6.266zm1.27 2.927h-8.834l-2.299 5.012h-3.356l10.212-21.934 9.851 21.934h-3.407l-2.167-5.012z" fill="#000"/><path d="M77.35 23.593h13.093v-4.928H77.35v4.928zm0-13.218a40.57 40.57 0 0 0 6.546.542c2.34 0 4.511-.211 6.547-.542V15.6H77.35v-5.226zm16.156 8.29h2.097V15.6h-2.097V9.76c9.24-2.26 14.561-7.083 14.848-7.348L106.269.164c-.061.058-4.69 4.262-12.763 6.427V.146h-3.063v7.118a37 37 0 0 1-6.547.59 36.87 36.87 0 0 1-6.545-.593V.146h-3.064v6.438C66.24 4.414 61.583.22 61.522.163L59.44 2.41c.285.265 5.608 5.087 14.847 7.348V15.6H72.19v3.064h2.098v4.928h-6.203v3.063h6.203v5.116h3.064v-5.116h13.092v5.116h3.063v-5.116h6.204v-3.063h-6.204v-4.928z" fill="#FF4040"/></g></svg>