<svg width="17" height="19" viewBox="0 0 17 19" xmlns="http://www.w3.org/2000/svg"><title>2BF9C72D-1F02-4C17-AF5F-B7A396B89AAB</title><path d="M13.744.773a.615.615 0 0 0-.615-.616H4.003a.615.615 0 0 0-.614.616V2.51h10.355V.773zm1.187 2.561H2.202c-.958 0-1.735.888-1.735 1.985v4.934c0 1.095.777 1.984 1.735 1.984h.571V10.5c0-.68.551-1.23 1.23-1.23h9.126c.68 0 1.23.55 1.23 1.23v1.737h.572c.959 0 1.736-.889 1.736-1.984V5.319c0-1.097-.777-1.985-1.736-1.985zm-2.73 11.551h-2.18a.112.112 0 0 0-.112.111v2.211H4.933v-6.644H3.93v7.146a.504.504 0 0 0 .502.503h5.689a.51.51 0 0 0 .355-.147l2.582-2.577a.5.5 0 0 0 .148-.356v-4.57H12.2v4.323z" fill="#6D6D6D" fill-rule="evenodd"/></svg>