<svg width="39" height="23" viewBox="0 0 39 23" xmlns="http://www.w3.org/2000/svg"><title>03F02368-5319-4515-A2AE-537FE017C6BD</title><g fill="#FF4040"><path d="M23.612.396c1.06.15 2.1.417 3.126.732a21.393 21.393 0 0 1 5.074 2.313.77.77 0 0 0 .388.112c1.868.008 3.736.005 5.602.007.15 0 .3.016.45.024 0 .037.005.052 0 .06l-.264.401c-.633.972-1.175 1.988-1.494 3.112-.035.12-.042.222.04.34 1.662 2.388 2.193 5.01 1.498 7.835-.61 2.479-2.03 4.411-4.189 5.78-1.543.978-3.247 1.444-5.068 1.454a8.846 8.846 0 0 1-2.274-.292c-1.82-.473-3.382-1.38-4.668-2.755-.17-.18-.33-.37-.51-.573l-2.036 3.034-2.002-2.991c-.045.024-.058.026-.067.035a.31.31 0 0 0-.04.041c-1.556 1.838-3.513 2.964-5.898 3.341a9.216 9.216 0 0 1-3.929-.22 9.368 9.368 0 0 1-4.631-2.887 9.362 9.362 0 0 1-2.274-4.838c-.327-1.712.072-3.363.171-3.763A9.57 9.57 0 0 1 2.1 7.48a.371.371 0 0 0 .042-.276C1.86 6.17 1.374 5.232.806 4.333c-.144-.229-.317-.44-.476-.66v-.076c.032.004.063.01.095.01 1.91 0 3.822.001 5.733-.002a.485.485 0 0 0 .247-.08 20.592 20.592 0 0 1 4.276-2.076 23.24 23.24 0 0 1 3.32-.9 26.593 26.593 0 0 1 3.302-.433c2.706-.208 4.87.078 6.309.28zm-2.396 12.622c0 4.197 3.405 7.626 7.587 7.61 4.198-.015 7.587-3.348 7.584-7.59-.003-4.374-3.55-7.66-7.747-7.575-4.143.086-7.386 3.425-7.424 7.555zM9.836 5.434c-4.083-.036-7.642 3.371-7.57 7.711.066 4.047 3.401 7.478 7.654 7.442 4.16-.036 7.502-3.432 7.51-7.544a7.569 7.569 0 0 0-7.594-7.61zm.376-1.98c2.306.14 4.332.944 6.043 2.5 1.708 1.554 2.709 3.492 3.073 5.77.374-2.251 1.348-4.17 3.024-5.709 1.679-1.54 3.677-2.347 5.946-2.518-2.692-1.197-5.53-1.705-8.452-1.761-3.32-.065-6.55.424-9.634 1.718z"/><path d="M28.788 8.23a4.683 4.683 0 0 1 4.7 4.683 4.705 4.705 0 1 1-9.41.012c.002-2.664 2.197-4.739 4.71-4.695zm3.063 4.695c-.001-1.693-1.37-3.07-3.051-3.07-1.7 0-3.085 1.37-3.092 3.057-.006 1.68 1.385 3.08 3.07 3.084a3.079 3.079 0 0 0 3.073-3.071zM9.735 8.23a4.681 4.681 0 0 1 4.696 4.688 4.702 4.702 0 0 1-4.474 4.704A4.707 4.707 0 0 1 5.02 12.92c.006-2.683 2.216-4.734 4.715-4.69zm3.06 4.684c-.005-1.703-1.382-3.061-3.102-3.058-1.658.003-3.048 1.403-3.044 3.068.004 1.684 1.392 3.069 3.082 3.073 1.679.004 3.069-1.394 3.064-3.083zm15.995-1.548c.86 0 1.566.706 1.558 1.561A1.562 1.562 0 0 1 28.8 14.48c-.871 0-1.572-.689-1.57-1.542a1.547 1.547 0 0 1 1.56-1.572zm-19.063-.014c.874 0 1.576.698 1.58 1.569a1.578 1.578 0 0 1-1.575 1.575 1.551 1.551 0 0 1-1.577-1.581c0-.88.686-1.562 1.572-1.563z"/></g></svg>