<svg width="29" height="24" viewBox="0 0 29 24" xmlns="http://www.w3.org/2000/svg"><title>291EABDD-E10A-4CFC-9534-83F3C0416B4B</title><path d="M28.322 3.588a11.052 11.052 0 0 1-3.25.913 5.79 5.79 0 0 0 2.489-3.21 11.145 11.145 0 0 1-3.596 1.407 5.58 5.58 0 0 0-4.13-1.831c-3.123 0-5.656 2.598-5.656 5.802 0 .455.048.896.146 1.321C9.622 7.748 5.453 5.44 2.66 1.926a5.908 5.908 0 0 0-.765 2.92 5.84 5.84 0 0 0 2.517 4.83 5.556 5.556 0 0 1-2.564-.725v.072c0 2.812 1.95 5.158 4.54 5.689a5.396 5.396 0 0 1-1.49.204c-.365 0-.72-.035-1.065-.103.72 2.305 2.808 3.983 5.285 4.028A11.173 11.173 0 0 1 .74 21.246a15.755 15.755 0 0 0 8.674 2.605c10.41 0 16.1-8.84 16.1-16.508a20.7 20.7 0 0 0-.014-.752 11.614 11.614 0 0 0 2.822-3.003" fill="#6D6D6D" fill-rule="evenodd"/></svg>