<svg width="25" height="24" viewBox="0 0 25 24" xmlns="http://www.w3.org/2000/svg"><title>B5A34DDA-CA21-498E-9F14-7D6BAED9ADEC</title><path d="M4.18.012h16.229a3.615 3.615 0 0 1 3.615 3.615v16.229a3.615 3.615 0 0 1-3.615 3.614H4.179a3.615 3.615 0 0 1-3.614-3.614V3.626A3.615 3.615 0 0 1 4.18.013zm7.918 16.422h.96s.289-.032.437-.192c.136-.146.132-.421.132-.421s-.019-1.288.579-1.477c.589-.187 1.345 1.244 2.147 1.794.606.417 1.067.326 1.067.326l2.144-.03s1.122-.07.59-.951c-.044-.072-.31-.653-1.594-1.845-1.345-1.247-1.165-1.046.455-3.204.986-1.314 1.38-2.117 1.257-2.46-.117-.328-.843-.241-.843-.241l-2.414.015s-.179-.025-.311.055c-.13.077-.214.259-.214.259s-.382 1.017-.891 1.882c-1.075 1.825-1.505 1.921-1.68 1.808-.41-.264-.307-1.061-.307-1.627 0-1.77.268-2.507-.523-2.698-.262-.063-.455-.105-1.126-.112-.862-.008-1.59.003-2.003.205-.275.135-.487.434-.358.452.16.02.521.097.713.358.247.336.238 1.092.238 1.092s.143 2.082-.332 2.34c-.325.178-.771-.184-1.73-1.84-.49-.848-.861-1.786-.861-1.786s-.072-.175-.2-.269a.997.997 0 0 0-.37-.15l-2.294.016s-.344.01-.47.159c-.113.133-.01.409-.01.409s1.796 4.201 3.83 6.319c1.864 1.941 3.982 1.814 3.982 1.814z" fill="#AFAFAF" fill-rule="evenodd"/></svg>