<svg width="31" height="31" viewBox="0 0 31 31" xmlns="http://www.w3.org/2000/svg"><title>9E02847C-9322-4504-933A-8624F26B6B46</title><g fill="none" fill-rule="evenodd"><rect fill="#D8D8D8" x=".392" y=".032" width="30.058" height="30.058" rx="3"/><path d="M9.684 7.24h11.21a2.497 2.497 0 0 1 2.497 2.496v11.21a2.497 2.497 0 0 1-2.497 2.497H9.684a2.497 2.497 0 0 1-2.496-2.497V9.736A2.497 2.497 0 0 1 9.684 7.24zm5.47 11.342h.662s.2-.022.303-.132c.094-.101.09-.291.09-.291s-.012-.89.4-1.02c.407-.13.93.86 1.484 1.24.418.287.737.224.737.224l1.48-.02s.775-.048.408-.658c-.03-.05-.214-.45-1.101-1.273-.929-.862-.804-.723.314-2.214.681-.908.954-1.462.868-1.7-.08-.225-.582-.166-.582-.166l-1.667.01s-.124-.016-.215.039c-.09.053-.147.179-.147.179s-.264.702-.616 1.3c-.743 1.26-1.04 1.327-1.161 1.249-.282-.183-.212-.733-.212-1.124 0-1.222.186-1.732-.36-1.864-.182-.043-.315-.072-.779-.077-.595-.006-1.098.002-1.383.142-.19.092-.337.3-.247.311.11.015.36.068.492.248.17.232.165.754.165.754s.098 1.438-.23 1.617c-.224.123-.533-.128-1.195-1.271-.339-.586-.595-1.234-.595-1.234s-.05-.12-.137-.186a.695.695 0 0 0-.256-.103l-1.585.01s-.238.007-.325.11c-.078.092-.006.283-.006.283s1.24 2.902 2.645 4.364c1.288 1.341 2.75 1.253 2.75 1.253z" fill="#FFF"/></g></svg>