<svg width="24" height="24" viewBox="0 0 24 24" xmlns="http://www.w3.org/2000/svg"><title>8B1321C5-7534-49AC-AD3F-B3525D3F8C63</title><path d="M3.863.105h16.466a3.668 3.668 0 0 1 3.668 3.667V20.24a3.668 3.668 0 0 1-3.668 3.667H3.863A3.668 3.668 0 0 1 .195 20.24V3.772A3.668 3.668 0 0 1 3.863.105zm8.033 16.662h.974s.294-.033.444-.195c.138-.148.134-.427.134-.427s-.019-1.307.587-1.5c.598-.189 1.366 1.263 2.18 1.822.614.422 1.082.33 1.082.33l2.175-.03s1.138-.07.598-.965c-.044-.073-.314-.662-1.617-1.872-1.364-1.266-1.181-1.06.462-3.25 1-1.334 1.4-2.149 1.275-2.497-.119-.333-.855-.245-.855-.245l-2.449.015s-.182-.024-.316.056c-.132.079-.216.263-.216.263s-.388 1.032-.905 1.91c-1.09 1.852-1.527 1.95-1.705 1.834-.415-.268-.311-1.076-.311-1.65 0-1.795.272-2.544-.53-2.737-.266-.065-.463-.107-1.143-.114-.874-.01-1.614.003-2.033.208-.278.136-.493.44-.362.458.161.021.528.099.722.363.251.342.243 1.108.243 1.108s.144 2.113-.337 2.375c-.33.18-.783-.187-1.756-1.867-.498-.86-.874-1.812-.874-1.812s-.072-.178-.202-.273c-.157-.115-.376-.152-.376-.152l-2.327.015s-.35.01-.478.162c-.114.135-.01.415-.01.415s1.823 4.263 3.886 6.41c1.892 1.97 4.04 1.842 4.04 1.842z" fill="#D2D2D2" fill-rule="evenodd"/></svg>